# xmcd CD database file generated by Grip 2.95
# 
# Track frame offsets:
#       150
#       11535
#       34980
#       52085
#       72647
#       94230
#       113125
#       130995
#       147030
#       163750
# 
# Disc length: 2328 seconds
# 
# Revision: 3
# Processed by: cddbd v1.4b41PL1 Copyright (c) Steve Scherf et al.
# Submitted via: Grip 2.95
# 
DISCID=9109160a
DTITLE=Frankie Starr - The Frankie Starr Band
DYEAR=1900
DGENRE=
TTITLE0=Shake Your Money Maker
TTITLE1=The Big Payback
TTITLE2=300 lbs of Heavenly Joy
TTITLE3=Put the Shoe on the Other Foot
TTITLE4=I Aint Superstitous
TTITLE5=Shes a Hit
TTITLE6=Dust My Broom
TTITLE7=Mercy, Mercy, Mercy
TTITLE8=Hangn On
TTITLE9=Cookies n Milk
EXTD=
EXTT0=
EXTT1=
EXTT2=
EXTT3=
EXTT4=
EXTT5=
EXTT6=
EXTT7=
EXTT8=
EXTT9=
PLAYORDER=
